<mxfile host="Electron" agent="Mozilla/5.0 (Windows NT 10.0; Win64; x64) AppleWebKit/537.36 (KHTML, like Gecko) draw.io/26.0.16 Chrome/132.0.6834.196 Electron/34.2.0 Safari/537.36" version="26.0.16">
  <diagram name="Page-1" id="YiMcbJlMNdYmS9H-wT7v">
    <mxGraphModel dx="1430" dy="825" grid="1" gridSize="10" guides="1" tooltips="1" connect="1" arrows="1" fold="1" page="1" pageScale="1" pageWidth="1169" pageHeight="827" math="0" shadow="0">
      <root>
        <mxCell id="0" />
        <mxCell id="1" parent="0" />
        <mxCell id="lAtEWj7t1V6RLmMNmIUl-1" value="" style="rounded=0;whiteSpace=wrap;html=1;fillColor=none;dashed=1;" vertex="1" parent="1">
          <mxGeometry x="80" y="120" width="200" height="560" as="geometry" />
        </mxCell>
        <mxCell id="lAtEWj7t1V6RLmMNmIUl-2" value="&lt;b&gt;&lt;font style=&quot;font-size: 18px;&quot;&gt;Sources&lt;/font&gt;&lt;/b&gt;" style="rounded=0;whiteSpace=wrap;html=1;fillColor=default;strokeColor=none;" vertex="1" parent="1">
          <mxGeometry x="135" y="100" width="90" height="30" as="geometry" />
        </mxCell>
        <mxCell id="lAtEWj7t1V6RLmMNmIUl-12" style="edgeStyle=orthogonalEdgeStyle;rounded=0;orthogonalLoop=1;jettySize=auto;html=1;" edge="1" parent="1" source="lAtEWj7t1V6RLmMNmIUl-3" target="lAtEWj7t1V6RLmMNmIUl-10">
          <mxGeometry relative="1" as="geometry">
            <Array as="points">
              <mxPoint x="290" y="300" />
              <mxPoint x="290" y="300" />
            </Array>
          </mxGeometry>
        </mxCell>
        <mxCell id="lAtEWj7t1V6RLmMNmIUl-13" style="edgeStyle=orthogonalEdgeStyle;rounded=0;orthogonalLoop=1;jettySize=auto;html=1;entryX=0;entryY=0.5;entryDx=0;entryDy=0;" edge="1" parent="1" source="lAtEWj7t1V6RLmMNmIUl-3" target="lAtEWj7t1V6RLmMNmIUl-9">
          <mxGeometry relative="1" as="geometry" />
        </mxCell>
        <mxCell id="lAtEWj7t1V6RLmMNmIUl-14" style="edgeStyle=orthogonalEdgeStyle;rounded=0;orthogonalLoop=1;jettySize=auto;html=1;entryX=0;entryY=0.5;entryDx=0;entryDy=0;" edge="1" parent="1" source="lAtEWj7t1V6RLmMNmIUl-3" target="lAtEWj7t1V6RLmMNmIUl-11">
          <mxGeometry relative="1" as="geometry" />
        </mxCell>
        <mxCell id="lAtEWj7t1V6RLmMNmIUl-3" value="&lt;b&gt;CRM&lt;/b&gt;" style="image;aspect=fixed;html=1;points=[];align=center;fontSize=12;image=img/lib/azure2/general/Folder_Blank.svg;" vertex="1" parent="1">
          <mxGeometry x="145.5" y="272" width="69" height="56.00000000000001" as="geometry" />
        </mxCell>
        <mxCell id="lAtEWj7t1V6RLmMNmIUl-18" style="edgeStyle=orthogonalEdgeStyle;rounded=0;orthogonalLoop=1;jettySize=auto;html=1;" edge="1" parent="1" source="lAtEWj7t1V6RLmMNmIUl-5" target="lAtEWj7t1V6RLmMNmIUl-16">
          <mxGeometry relative="1" as="geometry" />
        </mxCell>
        <mxCell id="lAtEWj7t1V6RLmMNmIUl-20" style="edgeStyle=orthogonalEdgeStyle;rounded=0;orthogonalLoop=1;jettySize=auto;html=1;entryX=0;entryY=0.5;entryDx=0;entryDy=0;" edge="1" parent="1" source="lAtEWj7t1V6RLmMNmIUl-5" target="lAtEWj7t1V6RLmMNmIUl-17">
          <mxGeometry relative="1" as="geometry" />
        </mxCell>
        <mxCell id="lAtEWj7t1V6RLmMNmIUl-21" style="edgeStyle=orthogonalEdgeStyle;rounded=0;orthogonalLoop=1;jettySize=auto;html=1;entryX=0;entryY=0.5;entryDx=0;entryDy=0;" edge="1" parent="1" source="lAtEWj7t1V6RLmMNmIUl-5" target="lAtEWj7t1V6RLmMNmIUl-15">
          <mxGeometry relative="1" as="geometry" />
        </mxCell>
        <mxCell id="lAtEWj7t1V6RLmMNmIUl-5" value="&lt;b&gt;ERP&lt;/b&gt;" style="image;aspect=fixed;html=1;points=[];align=center;fontSize=12;image=img/lib/azure2/general/Folder_Blank.svg;" vertex="1" parent="1">
          <mxGeometry x="145.5" y="480" width="69" height="56.00000000000001" as="geometry" />
        </mxCell>
        <mxCell id="lAtEWj7t1V6RLmMNmIUl-6" value="" style="rounded=1;whiteSpace=wrap;html=1;fillStyle=hatch;fillColor=#ffe6cc;strokeColor=#d79b00;" vertex="1" parent="1">
          <mxGeometry x="360" y="170" width="200" height="510" as="geometry" />
        </mxCell>
        <mxCell id="lAtEWj7t1V6RLmMNmIUl-7" value="&lt;b&gt;&lt;font style=&quot;font-size: 18px;&quot;&gt;Bronze Layer&lt;/font&gt;&lt;/b&gt;" style="rounded=1;whiteSpace=wrap;html=1;fillColor=#ffe6cc;strokeColor=#d79b00;" vertex="1" parent="1">
          <mxGeometry x="360" y="120" width="200" height="40" as="geometry" />
        </mxCell>
        <mxCell id="lAtEWj7t1V6RLmMNmIUl-38" style="edgeStyle=orthogonalEdgeStyle;rounded=0;orthogonalLoop=1;jettySize=auto;html=1;exitX=1;exitY=0.5;exitDx=0;exitDy=0;" edge="1" parent="1" source="lAtEWj7t1V6RLmMNmIUl-9" target="lAtEWj7t1V6RLmMNmIUl-46">
          <mxGeometry relative="1" as="geometry">
            <mxPoint x="610" y="250" as="targetPoint" />
          </mxGeometry>
        </mxCell>
        <mxCell id="lAtEWj7t1V6RLmMNmIUl-9" value="&lt;font style=&quot;font-size: 16px;&quot;&gt;crm_sales_details&lt;/font&gt;" style="rounded=1;whiteSpace=wrap;html=1;fillColor=#ffe6cc;strokeColor=#d79b00;" vertex="1" parent="1">
          <mxGeometry x="375" y="230" width="170" height="40" as="geometry" />
        </mxCell>
        <mxCell id="lAtEWj7t1V6RLmMNmIUl-39" style="edgeStyle=orthogonalEdgeStyle;rounded=0;orthogonalLoop=1;jettySize=auto;html=1;exitX=1;exitY=0.5;exitDx=0;exitDy=0;" edge="1" parent="1" source="lAtEWj7t1V6RLmMNmIUl-10" target="lAtEWj7t1V6RLmMNmIUl-47">
          <mxGeometry relative="1" as="geometry">
            <mxPoint x="610" y="300" as="targetPoint" />
          </mxGeometry>
        </mxCell>
        <mxCell id="lAtEWj7t1V6RLmMNmIUl-10" value="&lt;span style=&quot;font-size: 16px;&quot;&gt;crm_cust_info&lt;/span&gt;" style="rounded=1;whiteSpace=wrap;html=1;fillColor=#ffe6cc;strokeColor=#d79b00;" vertex="1" parent="1">
          <mxGeometry x="375" y="280" width="170" height="40" as="geometry" />
        </mxCell>
        <mxCell id="lAtEWj7t1V6RLmMNmIUl-40" style="edgeStyle=orthogonalEdgeStyle;rounded=0;orthogonalLoop=1;jettySize=auto;html=1;exitX=1;exitY=0.5;exitDx=0;exitDy=0;" edge="1" parent="1" source="lAtEWj7t1V6RLmMNmIUl-11" target="lAtEWj7t1V6RLmMNmIUl-48">
          <mxGeometry relative="1" as="geometry">
            <mxPoint x="610" y="350" as="targetPoint" />
          </mxGeometry>
        </mxCell>
        <mxCell id="lAtEWj7t1V6RLmMNmIUl-11" value="&lt;font style=&quot;font-size: 16px;&quot;&gt;crm_prd_info&lt;/font&gt;" style="rounded=1;whiteSpace=wrap;html=1;fillColor=#ffe6cc;strokeColor=#d79b00;" vertex="1" parent="1">
          <mxGeometry x="375" y="330" width="170" height="40" as="geometry" />
        </mxCell>
        <mxCell id="lAtEWj7t1V6RLmMNmIUl-41" style="edgeStyle=orthogonalEdgeStyle;rounded=0;orthogonalLoop=1;jettySize=auto;html=1;exitX=1;exitY=0.5;exitDx=0;exitDy=0;" edge="1" parent="1" source="lAtEWj7t1V6RLmMNmIUl-15" target="lAtEWj7t1V6RLmMNmIUl-49">
          <mxGeometry relative="1" as="geometry">
            <mxPoint x="610" y="458" as="targetPoint" />
          </mxGeometry>
        </mxCell>
        <mxCell id="lAtEWj7t1V6RLmMNmIUl-15" value="&lt;font style=&quot;font-size: 16px;&quot;&gt;erp_cust_az12&lt;/font&gt;" style="rounded=1;whiteSpace=wrap;html=1;fillColor=#ffe6cc;strokeColor=#d79b00;" vertex="1" parent="1">
          <mxGeometry x="375" y="438" width="170" height="40" as="geometry" />
        </mxCell>
        <mxCell id="lAtEWj7t1V6RLmMNmIUl-42" style="edgeStyle=orthogonalEdgeStyle;rounded=0;orthogonalLoop=1;jettySize=auto;html=1;exitX=1;exitY=0.5;exitDx=0;exitDy=0;entryX=0;entryY=0.5;entryDx=0;entryDy=0;" edge="1" parent="1" source="lAtEWj7t1V6RLmMNmIUl-16" target="lAtEWj7t1V6RLmMNmIUl-50">
          <mxGeometry relative="1" as="geometry">
            <mxPoint x="610" y="508" as="targetPoint" />
          </mxGeometry>
        </mxCell>
        <mxCell id="lAtEWj7t1V6RLmMNmIUl-16" value="&lt;span style=&quot;font-size: 16px;&quot;&gt;erp_loc_a101&lt;/span&gt;" style="rounded=1;whiteSpace=wrap;html=1;fillColor=#ffe6cc;strokeColor=#d79b00;" vertex="1" parent="1">
          <mxGeometry x="375" y="488" width="170" height="40" as="geometry" />
        </mxCell>
        <mxCell id="lAtEWj7t1V6RLmMNmIUl-43" style="edgeStyle=orthogonalEdgeStyle;rounded=0;orthogonalLoop=1;jettySize=auto;html=1;exitX=1;exitY=0.5;exitDx=0;exitDy=0;entryX=0;entryY=0.5;entryDx=0;entryDy=0;" edge="1" parent="1" source="lAtEWj7t1V6RLmMNmIUl-17" target="lAtEWj7t1V6RLmMNmIUl-51">
          <mxGeometry relative="1" as="geometry">
            <mxPoint x="610" y="558" as="targetPoint" />
          </mxGeometry>
        </mxCell>
        <mxCell id="lAtEWj7t1V6RLmMNmIUl-17" value="&lt;font style=&quot;font-size: 16px;&quot;&gt;erp_px_cat_g1v2&lt;/font&gt;" style="rounded=1;whiteSpace=wrap;html=1;fillColor=#ffe6cc;strokeColor=#d79b00;" vertex="1" parent="1">
          <mxGeometry x="375" y="538" width="170" height="40" as="geometry" />
        </mxCell>
        <mxCell id="lAtEWj7t1V6RLmMNmIUl-44" value="" style="rounded=1;whiteSpace=wrap;html=1;fillStyle=hatch;fillColor=#f5f5f5;strokeColor=#666666;fontColor=#333333;" vertex="1" parent="1">
          <mxGeometry x="600" y="170" width="200" height="510" as="geometry" />
        </mxCell>
        <mxCell id="lAtEWj7t1V6RLmMNmIUl-45" value="&lt;b&gt;&lt;font style=&quot;font-size: 18px;&quot;&gt;Silver Layer&lt;/font&gt;&lt;/b&gt;" style="rounded=1;whiteSpace=wrap;html=1;fillColor=#f5f5f5;strokeColor=#666666;fontColor=#333333;" vertex="1" parent="1">
          <mxGeometry x="600" y="120" width="200" height="40" as="geometry" />
        </mxCell>
        <mxCell id="lAtEWj7t1V6RLmMNmIUl-46" value="&lt;font style=&quot;font-size: 16px;&quot;&gt;crm_sales_details&lt;/font&gt;" style="rounded=1;whiteSpace=wrap;html=1;fillColor=#f5f5f5;strokeColor=#666666;fontColor=#333333;" vertex="1" parent="1">
          <mxGeometry x="615" y="230" width="170" height="40" as="geometry" />
        </mxCell>
        <mxCell id="lAtEWj7t1V6RLmMNmIUl-47" value="&lt;span style=&quot;font-size: 16px;&quot;&gt;crm_cust_info&lt;/span&gt;" style="rounded=1;whiteSpace=wrap;html=1;fillColor=#f5f5f5;strokeColor=#666666;fontColor=#333333;" vertex="1" parent="1">
          <mxGeometry x="615" y="280" width="170" height="40" as="geometry" />
        </mxCell>
        <mxCell id="lAtEWj7t1V6RLmMNmIUl-48" value="&lt;font style=&quot;font-size: 16px;&quot;&gt;crm_prd_info&lt;/font&gt;" style="rounded=1;whiteSpace=wrap;html=1;fillColor=#f5f5f5;strokeColor=#666666;fontColor=#333333;" vertex="1" parent="1">
          <mxGeometry x="615" y="330" width="170" height="40" as="geometry" />
        </mxCell>
        <mxCell id="lAtEWj7t1V6RLmMNmIUl-49" value="&lt;font style=&quot;font-size: 16px;&quot;&gt;erp_cust_az12&lt;/font&gt;" style="rounded=1;whiteSpace=wrap;html=1;fillColor=#f5f5f5;strokeColor=#666666;fontColor=#333333;" vertex="1" parent="1">
          <mxGeometry x="615" y="438" width="170" height="40" as="geometry" />
        </mxCell>
        <mxCell id="lAtEWj7t1V6RLmMNmIUl-50" value="&lt;span style=&quot;font-size: 16px;&quot;&gt;erp_loc_a101&lt;/span&gt;" style="rounded=1;whiteSpace=wrap;html=1;fillColor=#f5f5f5;strokeColor=#666666;fontColor=#333333;" vertex="1" parent="1">
          <mxGeometry x="615" y="488" width="170" height="40" as="geometry" />
        </mxCell>
        <mxCell id="lAtEWj7t1V6RLmMNmIUl-51" value="&lt;font style=&quot;font-size: 16px;&quot;&gt;erp_px_cat_g1v2&lt;/font&gt;" style="rounded=1;whiteSpace=wrap;html=1;fillColor=#f5f5f5;strokeColor=#666666;fontColor=#333333;" vertex="1" parent="1">
          <mxGeometry x="615" y="538" width="170" height="40" as="geometry" />
        </mxCell>
        <mxCell id="lAtEWj7t1V6RLmMNmIUl-52" value="" style="rounded=1;whiteSpace=wrap;html=1;fillStyle=hatch;fillColor=#fff2cc;strokeColor=#d6b656;" vertex="1" parent="1">
          <mxGeometry x="850" y="170" width="200" height="510" as="geometry" />
        </mxCell>
        <mxCell id="lAtEWj7t1V6RLmMNmIUl-53" value="&lt;b&gt;&lt;font style=&quot;font-size: 18px;&quot;&gt;Gold Layer&lt;/font&gt;&lt;/b&gt;" style="rounded=1;whiteSpace=wrap;html=1;fillColor=#fff2cc;strokeColor=#d6b656;" vertex="1" parent="1">
          <mxGeometry x="850" y="120" width="200" height="40" as="geometry" />
        </mxCell>
        <mxCell id="lAtEWj7t1V6RLmMNmIUl-54" value="&lt;font style=&quot;font-size: 16px;&quot;&gt;fact_sales&lt;/font&gt;" style="rounded=1;whiteSpace=wrap;html=1;fillColor=#fff2cc;strokeColor=#d6b656;" vertex="1" parent="1">
          <mxGeometry x="865" y="300" width="170" height="40" as="geometry" />
        </mxCell>
        <mxCell id="lAtEWj7t1V6RLmMNmIUl-55" value="&lt;span style=&quot;font-size: 16px;&quot;&gt;dim_customers&lt;/span&gt;" style="rounded=1;whiteSpace=wrap;html=1;fillColor=#fff2cc;strokeColor=#d6b656;" vertex="1" parent="1">
          <mxGeometry x="865" y="390" width="170" height="40" as="geometry" />
        </mxCell>
        <mxCell id="lAtEWj7t1V6RLmMNmIUl-56" value="&lt;font style=&quot;font-size: 16px;&quot;&gt;dim_products&lt;/font&gt;" style="rounded=1;whiteSpace=wrap;html=1;fillColor=#fff2cc;strokeColor=#d6b656;" vertex="1" parent="1">
          <mxGeometry x="865" y="485" width="170" height="40" as="geometry" />
        </mxCell>
        <mxCell id="lAtEWj7t1V6RLmMNmIUl-62" value="" style="endArrow=classic;html=1;rounded=0;entryX=0;entryY=0.5;entryDx=0;entryDy=0;exitX=1;exitY=0.5;exitDx=0;exitDy=0;jumpStyle=gap;" edge="1" parent="1" source="lAtEWj7t1V6RLmMNmIUl-46" target="lAtEWj7t1V6RLmMNmIUl-54">
          <mxGeometry width="50" height="50" relative="1" as="geometry">
            <mxPoint x="785" y="250" as="sourcePoint" />
            <mxPoint x="835" y="200" as="targetPoint" />
          </mxGeometry>
        </mxCell>
        <mxCell id="lAtEWj7t1V6RLmMNmIUl-63" value="" style="endArrow=classic;html=1;rounded=0;entryX=0;entryY=0.5;entryDx=0;entryDy=0;exitX=1;exitY=0.5;exitDx=0;exitDy=0;jumpStyle=gap;" edge="1" parent="1" source="lAtEWj7t1V6RLmMNmIUl-47" target="lAtEWj7t1V6RLmMNmIUl-55">
          <mxGeometry width="50" height="50" relative="1" as="geometry">
            <mxPoint x="785" y="300" as="sourcePoint" />
            <mxPoint x="865" y="340" as="targetPoint" />
          </mxGeometry>
        </mxCell>
        <mxCell id="lAtEWj7t1V6RLmMNmIUl-64" value="" style="endArrow=classic;html=1;rounded=0;entryX=0;entryY=0.5;entryDx=0;entryDy=0;exitX=1;exitY=0.5;exitDx=0;exitDy=0;jumpStyle=gap;" edge="1" parent="1" source="lAtEWj7t1V6RLmMNmIUl-49" target="lAtEWj7t1V6RLmMNmIUl-55">
          <mxGeometry width="50" height="50" relative="1" as="geometry">
            <mxPoint x="785" y="300" as="sourcePoint" />
            <mxPoint x="865" y="425" as="targetPoint" />
          </mxGeometry>
        </mxCell>
        <mxCell id="lAtEWj7t1V6RLmMNmIUl-65" value="" style="endArrow=classic;html=1;rounded=0;exitX=1;exitY=0.5;exitDx=0;exitDy=0;entryX=0;entryY=0.5;entryDx=0;entryDy=0;jumpStyle=gap;" edge="1" parent="1" source="lAtEWj7t1V6RLmMNmIUl-50" target="lAtEWj7t1V6RLmMNmIUl-55">
          <mxGeometry width="50" height="50" relative="1" as="geometry">
            <mxPoint x="785" y="503" as="sourcePoint" />
            <mxPoint x="865" y="470" as="targetPoint" />
          </mxGeometry>
        </mxCell>
        <mxCell id="lAtEWj7t1V6RLmMNmIUl-66" value="" style="endArrow=classic;html=1;rounded=0;entryX=0;entryY=0.5;entryDx=0;entryDy=0;exitX=1;exitY=0.5;exitDx=0;exitDy=0;jumpStyle=gap;" edge="1" parent="1" target="lAtEWj7t1V6RLmMNmIUl-56">
          <mxGeometry width="50" height="50" relative="1" as="geometry">
            <mxPoint x="785" y="350" as="sourcePoint" />
            <mxPoint x="865" y="430" as="targetPoint" />
          </mxGeometry>
        </mxCell>
        <mxCell id="lAtEWj7t1V6RLmMNmIUl-67" value="" style="endArrow=classic;html=1;rounded=0;exitX=1;exitY=0.5;exitDx=0;exitDy=0;entryX=0;entryY=0.5;entryDx=0;entryDy=0;jumpStyle=gap;" edge="1" parent="1" target="lAtEWj7t1V6RLmMNmIUl-56">
          <mxGeometry width="50" height="50" relative="1" as="geometry">
            <mxPoint x="785" y="558" as="sourcePoint" />
            <mxPoint x="865" y="430" as="targetPoint" />
          </mxGeometry>
        </mxCell>
        <mxCell id="lAtEWj7t1V6RLmMNmIUl-68" value="&lt;b&gt;&lt;font style=&quot;font-size: 24px;&quot;&gt;Data Flow Diagram&lt;/font&gt;&lt;/b&gt;" style="text;html=1;align=center;verticalAlign=middle;whiteSpace=wrap;rounded=0;" vertex="1" parent="1">
          <mxGeometry x="10" y="10" width="230" height="30" as="geometry" />
        </mxCell>
      </root>
    </mxGraphModel>
  </diagram>
</mxfile>
